<svg width="738" height="995" viewBox="0 0 738 995" fill="none" xmlns="http://www.w3.org/2000/svg">
<path d="M686.544 192.441C679.036 196.863 671.46 201.148 663.895 205.4C640.884 218.358 617.081 231.769 596.06 249.172L591.549 252.903L594.082 258.184C610.885 293.147 618.834 330.575 617.737 369.111C611.936 449.667 584.549 528.266 536.322 602.726C508.856 645.107 475.216 686.504 433.435 729.27L423.484 739.514C402.825 760.829 381.499 782.834 358.465 800.926C256.041 730.954 173.496 638.39 125.687 539.788C122.691 533.626 119.841 527.327 117.082 520.984L115.318 516.969L110.965 516.528C84.7309 513.849 58.7008 517.84 37.6687 527.757L31.2686 530.776L33.9145 537.334C121.628 754.644 352.45 894.27 354.768 895.638L358.578 897.922L362.4 895.683C553.872 783.535 677.272 620.095 714.621 507.867C751.02 398.545 744.744 287.595 697.003 195.449L693.362 188.427L686.544 192.441Z" fill="#5938B9"/>
<path d="M253.497 17.7502C83.928 71.9701 -19.0842 237.05 2.95431 419.17C7.72612 458.453 18.1291 498.21 33.9145 537.334L36.8884 544.684L44.0574 541.303C62.6584 532.529 85.8955 529.046 109.449 531.432L122.182 532.732L117.082 520.995C89.808 458.328 78.1046 396.317 83.2157 341.611C93.0872 235.817 171.709 145.153 278.86 116.002C401.287 82.7123 539.749 145.153 594.082 258.184L598.232 266.8L605.615 260.705C625.585 244.174 647.77 231.667 671.256 218.437C678.889 214.141 686.544 209.821 694.143 205.355L700.26 201.759L697.003 195.449C674.524 152.107 643.451 114.306 604.609 83.0855C537.227 28.9334 452.171 0.23468 366.765 0.23468C328.557 0.23468 290.292 5.96765 253.497 17.7502Z" fill="url(#paint0_linear_133_4)"/>
<path d="M571.32 177.165C566.638 180.139 562.002 183.146 557.422 186.211L554.177 188.427C425.926 274.942 322.338 409.344 268.649 558.502C221.496 526.287 165.75 501.15 98.6732 481.837C91.0971 479.598 83.4419 477.506 76.3181 475.685C75.47 475.38 55.2181 468.584 40.2016 479.259C30.6354 486.077 25.7731 497.893 25.7505 514.437L26.1802 516.924C33.0326 536.396 41.502 556.275 51.3169 575.972L57.7962 588.965L64.626 576.165C74.9046 556.987 102.62 567.594 128.401 580.496L133.173 582.848C203.687 616.25 251.394 649.314 297.845 696.952L305.987 705.297L310.193 694.42C359.381 567.288 452.952 397.29 619.456 308.299L620.711 308.288L622.125 306.874C625.766 304.929 629.475 303.052 633.251 301.209C660.265 287.787 692.718 288.205 720.116 302.385L733.765 309.441L730.904 294.345C724.289 259.348 712.879 226.081 696.992 195.472L696.981 195.46C690.174 182.389 682.643 169.837 674.592 158.179L672.658 155.364L669.277 154.979C663.51 154.323 657.721 153.995 651.965 153.995C623.402 153.995 595.303 162.013 571.32 177.165Z" fill="url(#paint1_linear_133_4)"/>
<ellipse cx="369" cy="956.223" rx="113.733" ry="38.5428" fill="#5938B9"/>
<defs>
<linearGradient id="paint0_linear_133_4" x1="0" y1="544.684" x2="0" y2="1.91954" gradientUnits="userSpaceOnUse">
<stop stop-color="#3023AE"/>
<stop offset="1" stop-color="#C86DD7"/>
</linearGradient>
<linearGradient id="paint1_linear_133_4" x1="25.7505" y1="705.297" x2="25.7505" y2="151.225" gradientUnits="userSpaceOnUse">
<stop stop-color="#3023AE"/>
<stop offset="1" stop-color="#C86DD7"/>
</linearGradient>
</defs>
</svg>
